<svg id="Layer_1" data-name="Layer 1" xmlns="http://www.w3.org/2000/svg" viewBox="0 0 300 153"><defs><style>.cls-1{fill:#fff;}</style></defs><title>contapp-brand</title><path class="cls-1" d="M50.2,134.37q-7.06,0-10.38-3.7T36.5,120.53a28.85,28.85,0,0,1,1.23-8.26,23.8,23.8,0,0,1,3.7-7.47,19.46,19.46,0,0,1,6.2-5.41,17.59,17.59,0,0,1,8.74-2.09q7.13,0,10.45,3.77t3.32,10.21a29.73,29.73,0,0,1-1.2,8.36,22.9,22.9,0,0,1-3.67,7.4A18.75,18.75,0,0,1,59,132.35,18.45,18.45,0,0,1,50.2,134.37Zm.89-7.4a6.23,6.23,0,0,0,4.39-1.65,12.84,12.84,0,0,0,2.91-4.08A20.73,20.73,0,0,0,60,116.1a28.35,28.35,0,0,0,.48-4.9q0-6.3-5.14-6.31A5.85,5.85,0,0,0,51,106.61a13.68,13.68,0,0,0-2.81,4.18A21,21,0,0,0,46.68,116a30.56,30.56,0,0,0-.45,4.86Q46.23,127,51.1,127Z"/><path class="cls-1" d="M78.1,113.33q.75-4.32,1.13-7.64a49.19,49.19,0,0,0,.38-5.18V99.24a10.28,10.28,0,0,0-.07-1.13,25.33,25.33,0,0,1,4.52-.41,20.29,20.29,0,0,1,2.06.1c.69.07,1.42.17,2.19.31.09.37.18.8.27,1.3a13.84,13.84,0,0,1,.14,2.26c0,.41,0,.82,0,1.24s-.08.91-.17,1.51a14.43,14.43,0,0,1,2.06-2.74,13.64,13.64,0,0,1,2.81-2.26,14.8,14.8,0,0,1,3.39-1.51,12.72,12.72,0,0,1,3.67-.55,9.19,9.19,0,0,1,6.41,2.09q2.29,2.09,2.3,7a18.93,18.93,0,0,1-.14,2.19q-.14,1.17-.34,2.47l-4,22.48a32.19,32.19,0,0,1-5,.41,27.22,27.22,0,0,1-4.73-.41l3.84-21.73a13.29,13.29,0,0,0,.27-2.6,3.82,3.82,0,0,0-.89-2.88,3.61,3.61,0,0,0-2.54-.82,5.93,5.93,0,0,0-2.16.48,6.34,6.34,0,0,0-2.43,2,18.25,18.25,0,0,0-2.4,4.35,36.74,36.74,0,0,0-2,7.4l-2.53,13.78a33.12,33.12,0,0,1-5,.41,27.24,27.24,0,0,1-4.73-.41Z"/><path class="cls-1" d="M120.18,105.51H114.9a23.68,23.68,0,0,1,.27-3.63,18.59,18.59,0,0,1,1-3.77h5.28l.41-2.06a21.67,21.67,0,0,0,.41-3.25q.07-1.54.07-2.57a12,12,0,0,1,4.45-1.65,28.26,28.26,0,0,1,4.93-.48,8.36,8.36,0,0,1,.34,2.6,17.71,17.71,0,0,1-.17,2.36q-.17,1.27-.44,2.77l-.41,2.26h8.5a19.22,19.22,0,0,1-.34,3.77,33,33,0,0,1-1,3.63h-8.5l-2.4,13.5c-.09.64-.17,1.23-.24,1.78a12.47,12.47,0,0,0-.1,1.58,4.38,4.38,0,0,0,.82,2.81,3.79,3.79,0,0,0,3.08,1A11,11,0,0,0,133,126q.89-.17,1.65-.38a12.89,12.89,0,0,1,.89,5.21V132a9,9,0,0,1-.07,1.1,24.59,24.59,0,0,1-7.06.89q-5.76,0-8.53-2.12t-2.78-7.13a17,17,0,0,1,.14-2.13q.14-1.1.34-2.4Z"/><path class="cls-1" d="M172.2,118.19q-.76,4.32-1.1,7.64t-.34,5.18v1.27a10.26,10.26,0,0,0,.07,1.13,24.94,24.94,0,0,1-4.46.41,24.67,24.67,0,0,1-4.25-.41c-.09-.37-.18-.8-.27-1.3a13.66,13.66,0,0,1-.14-2.26v-1.3a10.4,10.4,0,0,1,.14-1.58,18,18,0,0,1-5.07,5.28,12.37,12.37,0,0,1-7.2,2.13q-4.52,0-6.79-2.88a12,12,0,0,1-2.26-7.61,32.29,32.29,0,0,1,1.54-9.94,25.5,25.5,0,0,1,4.59-8.5,22.63,22.63,0,0,1,7.57-5.93,23.64,23.64,0,0,1,10.56-2.23,35.84,35.84,0,0,1,5.62.41,39.43,39.43,0,0,1,5.14,1.17Zm-7.06-12.75a7.81,7.81,0,0,0-1.2-.17c-.39,0-.77,0-1.13,0a9.34,9.34,0,0,0-5.59,1.65,13.93,13.93,0,0,0-3.8,4.11,18.32,18.32,0,0,0-2.19,5.31,22.26,22.26,0,0,0-.69,5.18q0,5.07,3.36,5.07t6.1-4q2.81-4,4.11-11.27Z"/><path class="cls-1" d="M183.23,113.33q.75-4.32,1.13-7.64a49.12,49.12,0,0,0,.38-5.18V99.24a10.59,10.59,0,0,0-.07-1.13,25.29,25.29,0,0,1,4.52-.41,25.91,25.91,0,0,1,4.32.41c.09.37.18.8.27,1.3a13.68,13.68,0,0,1,.14,2.26c0,.41,0,.8,0,1.17s-.08.82-.17,1.37a13,13,0,0,1,4.8-4.93,13.69,13.69,0,0,1,7.33-2,8.81,8.81,0,0,1,7.37,3.29q2.57,3.29,2.57,9.53a29.57,29.57,0,0,1-1.3,8.57,22.61,22.61,0,0,1-4.15,7.81,21.29,21.29,0,0,1-7.37,5.69,25.1,25.1,0,0,1-11,2.19,16.52,16.52,0,0,1-1.75-.07c-.39,0-.7-.09-.93-.14l-2.74,15.56a19.07,19.07,0,0,1-2.6.34q-1.23.07-2.33.07c-.78,0-1.55,0-2.33-.07a17.21,17.21,0,0,1-2.47-.34Zm7.47,12.61a5.24,5.24,0,0,0,1.41.27q.86.07,1.75.07a9.27,9.27,0,0,0,5.17-1.41,12,12,0,0,0,3.56-3.56,15.6,15.6,0,0,0,2.06-4.76,21,21,0,0,0,.65-5.07,8.26,8.26,0,0,0-1-4.15,3.58,3.58,0,0,0-3.39-1.75,6.87,6.87,0,0,0-5.41,2.67q-2.26,2.67-3.29,8.84Z"/><path class="cls-1" d="M223.53,113.33q.75-4.32,1.13-7.64a49.12,49.12,0,0,0,.38-5.18V99.24a10.59,10.59,0,0,0-.07-1.13,25.29,25.29,0,0,1,4.52-.41,25.91,25.91,0,0,1,4.32.41c.09.37.18.8.27,1.3a13.68,13.68,0,0,1,.14,2.26c0,.41,0,.8,0,1.17s-.08.82-.17,1.37a13,13,0,0,1,4.8-4.93,13.69,13.69,0,0,1,7.33-2,8.81,8.81,0,0,1,7.37,3.29q2.57,3.29,2.57,9.53a29.57,29.57,0,0,1-1.3,8.57,22.61,22.61,0,0,1-4.15,7.81,21.29,21.29,0,0,1-7.37,5.69,25.1,25.1,0,0,1-11,2.19,16.52,16.52,0,0,1-1.75-.07c-.39,0-.7-.09-.93-.14l-2.74,15.56a19.07,19.07,0,0,1-2.6.34q-1.23.07-2.33.07c-.78,0-1.55,0-2.33-.07a17.21,17.21,0,0,1-2.47-.34ZM231,125.94a5.24,5.24,0,0,0,1.41.27q.86.07,1.75.07a9.27,9.27,0,0,0,5.17-1.41,12,12,0,0,0,3.56-3.56,15.6,15.6,0,0,0,2.06-4.76,21,21,0,0,0,.65-5.07,8.26,8.26,0,0,0-1-4.15,3.58,3.58,0,0,0-3.39-1.75,6.87,6.87,0,0,0-5.41,2.67q-2.26,2.67-3.29,8.84Z"/><path class="cls-1" d="M16.21,134.1q-5.83-.89-8.57-4.52a15.29,15.29,0,0,1-2.74-9.46,25.41,25.41,0,0,1,1.16-7.54,24.91,24.91,0,0,1,3.39-7A20.43,20.43,0,0,1,15,100.24a17.73,17.73,0,0,1,7.64-2.74L24,90A11.7,11.7,0,0,1,27,89.62a10.46,10.46,0,0,1,2.88.41l-1.3,7.47a25.52,25.52,0,0,1,5.48,1.23,17.09,17.09,0,0,1-.62,3.8,14.2,14.2,0,0,1-1.71,3.87,19.1,19.1,0,0,0-3-1,15.53,15.53,0,0,0-3.43-.34,7.88,7.88,0,0,0-4.56,1.34,11.55,11.55,0,0,0-3.25,3.39,15.93,15.93,0,0,0-2,4.56,19.13,19.13,0,0,0-.65,4.83q0,3.77,1.92,5.55a6.86,6.86,0,0,0,4.87,1.78,16.17,16.17,0,0,0,3-.27,19.72,19.72,0,0,0,3.67-1.17,11.76,11.76,0,0,1,1.23,2.95,17.39,17.39,0,0,1,.48,4.52,22.15,22.15,0,0,1-8,1.71l-1.23,7.33a12,12,0,0,1-3,.41,10.7,10.7,0,0,1-2.95-.41Z"/><path class="cls-1" d="M197.12,2.39H132.45a3.88,3.88,0,1,0,0,7.76h54.28a3.88,3.88,0,0,1,0,7.76H150.1a3.88,3.88,0,1,0,0,7.76h59.62a3.88,3.88,0,0,1,0,7.76h-52a3.88,3.88,0,1,0,0,7.76h8.56a3.88,3.88,0,0,1,0,7.76H130.6a3.88,3.88,0,0,0,0,7.76h50.26a3.88,3.88,0,1,1,0,7.76H110.4a3.88,3.88,0,1,0,0,7.76H262L296,2.39Zm63.29,21.44a18.55,18.55,0,0,1-2.76,3.76,17.11,17.11,0,0,0-2.92-.93,16.31,16.31,0,0,0-3.51-.33,10.59,10.59,0,0,0-5.13,1.3,17.27,17.27,0,0,0-4.3,3.31,21.37,21.37,0,0,0-3.26,4.47,21.74,21.74,0,0,0-2,4.78q-1,3.74.55,5.53a5.93,5.93,0,0,0,4.71,1.78,19.55,19.55,0,0,0,3.25-.27A27,27,0,0,0,249.28,46a9.17,9.17,0,0,1,.55,3,16.73,16.73,0,0,1-.66,4.56,28.91,28.91,0,0,1-9,1.74l-3.31,7.48a14.94,14.94,0,0,1-3.36.42,10.87,10.87,0,0,1-3.07-.42l3.47-7.69q-6-.9-7.93-4.57t-.3-9.46a29.53,29.53,0,0,1,3.3-7.44,34.44,34.44,0,0,1,5.44-6.8,30.75,30.75,0,0,1,7.23-5.21A24.55,24.55,0,0,1,250.35,19l3.23-7.13a14.47,14.47,0,0,1,3.3-.39,10.67,10.67,0,0,1,2.88.39L256.57,19A24.45,24.45,0,0,1,262,20.16,18.84,18.84,0,0,1,260.41,23.83Z"/></svg>