<svg id="Layer_1" data-name="Layer 1" xmlns="http://www.w3.org/2000/svg" viewBox="0 0 135.5 34"><defs><style>.cls-1{fill:#fff;}</style></defs><title>contapp-logo</title><path class="cls-1" d="M24.81,25q-3.78,0-5.56-2a7.83,7.83,0,0,1-1.78-5.43,15.44,15.44,0,0,1,.66-4.42,12.74,12.74,0,0,1,2-4,10.41,10.41,0,0,1,3.32-2.9,9.42,9.42,0,0,1,4.68-1.12q3.81,0,5.59,2a8,8,0,0,1,1.78,5.46,15.91,15.91,0,0,1-.64,4.47,12.26,12.26,0,0,1-2,4A10,10,0,0,1,29.54,24,9.87,9.87,0,0,1,24.81,25Zm.48-4a3.34,3.34,0,0,0,2.35-.88A6.87,6.87,0,0,0,29.19,18a11.09,11.09,0,0,0,.86-2.75,15.17,15.17,0,0,0,.26-2.62q0-3.37-2.75-3.37a3.13,3.13,0,0,0-2.31.92,7.32,7.32,0,0,0-1.5,2.24,11.26,11.26,0,0,0-.83,2.79,16.35,16.35,0,0,0-.24,2.6Q22.68,21.09,25.28,21.09Z"/><path class="cls-1" d="M39.73,13.79q.4-2.31.61-4.09a26.32,26.32,0,0,0,.2-2.77V6.25a5.5,5.5,0,0,0,0-.61,13.55,13.55,0,0,1,2.42-.22,10.86,10.86,0,0,1,1.1.06c.37,0,.76.09,1.17.16,0,.2.1.43.15.7a7.41,7.41,0,0,1,.07,1.21c0,.22,0,.44,0,.66s0,.49-.09.81a7.72,7.72,0,0,1,1.1-1.47,7.3,7.3,0,0,1,1.5-1.21,7.92,7.92,0,0,1,1.82-.81,6.81,6.81,0,0,1,2-.29,4.92,4.92,0,0,1,3.43,1.12,4.84,4.84,0,0,1,1.23,3.72,10.13,10.13,0,0,1-.07,1.17q-.07.62-.18,1.32L54,24.61a17.22,17.22,0,0,1-2.68.22,14.57,14.57,0,0,1-2.53-.22L50.81,13A7.11,7.11,0,0,0,51,11.59,2,2,0,0,0,50.48,10a1.93,1.93,0,0,0-1.36-.44A3.17,3.17,0,0,0,48,9.86a3.39,3.39,0,0,0-1.3,1.08,9.77,9.77,0,0,0-1.28,2.33,19.66,19.66,0,0,0-1.06,4L43,24.61a17.72,17.72,0,0,1-2.68.22,14.57,14.57,0,0,1-2.53-.22Z"/><path class="cls-1" d="M62.25,9.61H59.43a12.67,12.67,0,0,1,.15-1.94,10,10,0,0,1,.55-2h2.82l.22-1.1a11.6,11.6,0,0,0,.22-1.74q0-.83,0-1.38A6.4,6.4,0,0,1,65.81.55,15.12,15.12,0,0,1,68.45.29a4.47,4.47,0,0,1,.18,1.39A9.48,9.48,0,0,1,68.54,3q-.09.68-.24,1.48l-.22,1.21h4.55a10.29,10.29,0,0,1-.18,2,17.66,17.66,0,0,1-.51,1.94H67.39L66.1,16.83c0,.34-.09.66-.13,1a6.68,6.68,0,0,0-.06.84,2.35,2.35,0,0,0,.44,1.5,2,2,0,0,0,1.65.55,5.88,5.88,0,0,0,1.1-.09q.48-.09.88-.2a6.9,6.9,0,0,1,.48,2.79v.59a4.83,4.83,0,0,1,0,.59,13.16,13.16,0,0,1-3.78.48,7.49,7.49,0,0,1-4.57-1.14,4.51,4.51,0,0,1-1.49-3.81,9.1,9.1,0,0,1,.07-1.14q.07-.59.18-1.28Z"/><path class="cls-1" d="M90.09,16.39q-.4,2.31-.59,4.09t-.18,2.77v.68a5.49,5.49,0,0,0,0,.61,13.34,13.34,0,0,1-2.38.22,13.2,13.2,0,0,1-2.27-.22c0-.2-.1-.43-.15-.7a7.31,7.31,0,0,1-.07-1.21v-.7a5.57,5.57,0,0,1,.07-.84,9.65,9.65,0,0,1-2.71,2.82A6.62,6.62,0,0,1,78,25a4.33,4.33,0,0,1-3.63-1.54,6.41,6.41,0,0,1-1.21-4.07A17.28,17.28,0,0,1,74,14.12a13.64,13.64,0,0,1,2.46-4.55A12.11,12.11,0,0,1,80.48,6.4a12.65,12.65,0,0,1,5.65-1.19,19.18,19.18,0,0,1,3,.22,21.1,21.1,0,0,1,2.75.62ZM86.31,9.57a4.18,4.18,0,0,0-.64-.09l-.61,0a5,5,0,0,0-3,.88,7.45,7.45,0,0,0-2,2.2,9.8,9.8,0,0,0-1.17,2.84,11.91,11.91,0,0,0-.37,2.77q0,2.71,1.8,2.71t3.26-2.14a15.24,15.24,0,0,0,2.2-6Z"/><path class="cls-1" d="M96,13.79q.4-2.31.6-4.09a26.28,26.28,0,0,0,.2-2.77V6.25a5.67,5.67,0,0,0,0-.61,13.53,13.53,0,0,1,2.42-.22,13.86,13.86,0,0,1,2.31.22c0,.2.1.43.15.7a7.32,7.32,0,0,1,.07,1.21c0,.22,0,.43,0,.62s0,.44-.09.73a7,7,0,0,1,2.57-2.64,7.32,7.32,0,0,1,3.92-1.06A4.71,4.71,0,0,1,112,7a8.15,8.15,0,0,1,1.37,5.1,15.83,15.83,0,0,1-.7,4.58,12.1,12.1,0,0,1-2.22,4.18,11.39,11.39,0,0,1-3.94,3,13.43,13.43,0,0,1-5.9,1.17,8.84,8.84,0,0,1-.94,0l-.5-.07-1.47,8.33a10.2,10.2,0,0,1-1.39.18q-.66,0-1.25,0c-.42,0-.83,0-1.25,0a9.21,9.21,0,0,1-1.32-.18Zm4,6.75a2.81,2.81,0,0,0,.75.15q.46,0,.94,0a5,5,0,0,0,2.77-.75,6.44,6.44,0,0,0,1.91-1.91,8.35,8.35,0,0,0,1.1-2.55,11.21,11.21,0,0,0,.35-2.71,4.42,4.42,0,0,0-.53-2.22,1.92,1.92,0,0,0-1.82-.94,3.67,3.67,0,0,0-2.9,1.43,10,10,0,0,0-1.76,4.73Z"/><path class="cls-1" d="M117.56,13.79q.4-2.31.6-4.09a26.28,26.28,0,0,0,.2-2.77V6.25a5.67,5.67,0,0,0,0-.61,13.53,13.53,0,0,1,2.42-.22,13.86,13.86,0,0,1,2.31.22c0,.2.1.43.15.7a7.32,7.32,0,0,1,.07,1.21c0,.22,0,.43,0,.62s0,.44-.09.73a7,7,0,0,1,2.57-2.64,7.32,7.32,0,0,1,3.92-1.06A4.71,4.71,0,0,1,133.61,7a8.15,8.15,0,0,1,1.37,5.1,15.83,15.83,0,0,1-.7,4.58,12.1,12.1,0,0,1-2.22,4.18,11.39,11.39,0,0,1-3.94,3,13.43,13.43,0,0,1-5.9,1.17,8.84,8.84,0,0,1-.94,0l-.5-.07-1.47,8.33a10.2,10.2,0,0,1-1.39.18q-.66,0-1.25,0c-.42,0-.83,0-1.25,0a9.21,9.21,0,0,1-1.32-.18Zm4,6.75a2.81,2.81,0,0,0,.75.15q.46,0,.94,0A5,5,0,0,0,126,20a6.44,6.44,0,0,0,1.91-1.91,8.35,8.35,0,0,0,1.1-2.55,11.21,11.21,0,0,0,.35-2.71,4.42,4.42,0,0,0-.53-2.22A1.92,1.92,0,0,0,127,9.64a3.67,3.67,0,0,0-2.9,1.43,10,10,0,0,0-1.76,4.73Z"/><path class="cls-1" d="M6.61,24.9A6.72,6.72,0,0,1,2,22.48,8.18,8.18,0,0,1,.56,17.42a13.6,13.6,0,0,1,.62-4A13.33,13.33,0,0,1,3,9.66,10.93,10.93,0,0,1,6,6.78a9.49,9.49,0,0,1,4.09-1.47l.7-4a6.26,6.26,0,0,1,1.65-.22,5.6,5.6,0,0,1,1.54.22l-.7,4A13.66,13.66,0,0,1,16.19,6a9.14,9.14,0,0,1-.33,2,7.6,7.6,0,0,1-.92,2.07,10.22,10.22,0,0,0-1.61-.51,8.31,8.31,0,0,0-1.83-.18,4.22,4.22,0,0,0-2.44.71,6.18,6.18,0,0,0-1.74,1.82,8.52,8.52,0,0,0-1,2.44,10.23,10.23,0,0,0-.35,2.59,3.87,3.87,0,0,0,1,3,3.67,3.67,0,0,0,2.6,1,8.65,8.65,0,0,0,1.6-.15,10.55,10.55,0,0,0,2-.62,6.29,6.29,0,0,1,.66,1.58A9.3,9.3,0,0,1,14,24.09,11.85,11.85,0,0,1,9.77,25l-.66,3.92a6.41,6.41,0,0,1-1.61.22,5.73,5.73,0,0,1-1.58-.22Z"/></svg>